<svg width="456" height="180" viewBox="0 0 456 180" fill="none" xmlns="http://www.w3.org/2000/svg">
<g clip-path="url(#clip0_4_44)">
<path d="M61.515 109.235L108.834 137.89C111.673 139.631 111.673 143.905 108.834 145.647L61.515 174.143C58.5182 175.884 54.7326 173.826 54.7326 170.343V113.035C54.7326 109.552 58.5182 107.336 61.515 109.235ZM54.7326 4.43317V61.7419C54.7326 65.2247 58.5182 67.4411 61.515 65.5414L108.834 36.887C111.673 35.1456 111.673 30.8712 108.834 29.1297L61.515 0.633694C58.5182 -1.10773 54.7326 0.950316 54.7326 4.43317ZM0 58.734V115.884C0 119.367 3.78554 121.584 6.78243 119.684L54.1017 91.0295C56.9408 89.288 56.9408 85.0136 54.1017 83.2722L6.78243 54.6179C3.78554 53.1931 0 55.2511 0 58.734ZM109.308 58.734V115.884C109.308 119.367 113.093 121.584 116.09 119.684L163.409 91.0295C166.248 89.288 166.248 85.0136 163.409 83.2722L116.09 54.6179C113.093 53.1931 109.308 55.2511 109.308 58.734Z" fill="#CF4520"/>
<path d="M228.71 38.7863C231.233 40.0528 233.126 41.7942 234.388 44.0105C235.65 46.2269 236.438 48.9182 236.438 52.0844C236.438 55.0923 235.807 57.7836 234.388 60.1583C233.126 62.533 231.233 64.2744 228.71 65.3826C226.186 66.6491 223.347 67.2823 220.034 67.2823H212.463V78.839H203.788V36.8865H220.034C223.347 36.8865 226.186 37.5198 228.71 38.7863ZM225.397 57.467C226.817 56.2005 227.448 54.4591 227.448 52.0844C227.448 49.7098 226.817 47.9683 225.397 46.7018C223.978 45.4354 222.085 44.8021 219.403 44.8021H212.306V59.3667H219.403C222.085 59.3667 224.135 58.7335 225.397 57.467ZM267.038 69.9736H249.53L246.218 78.9974H237.227L253.947 37.0449H262.622L279.499 78.9974H270.351L267.038 69.9736ZM264.199 62.533L258.205 46.5435L252.369 62.533H264.199ZM285.808 36.8865H316.092V44.6438H294.326V53.3509H304.736C309.31 53.3509 312.78 54.4591 315.146 56.5171C317.512 58.5752 318.774 61.7414 318.774 65.6992C318.774 69.8153 317.512 73.1398 314.831 75.5145C312.149 77.8892 308.364 78.9974 303.632 78.9974H285.808V36.8865ZM303.159 71.715C305.367 71.715 307.102 71.2401 308.206 70.2902C309.31 69.3404 309.941 67.9156 309.941 66.0158C309.941 62.3747 307.575 60.4749 303.001 60.4749H294.326V71.715H303.159ZM334.074 76.781C330.919 74.8813 328.553 72.3483 326.66 69.0237C324.925 65.6992 323.979 62.058 323.979 57.9419C323.979 53.8258 324.925 50.1847 326.66 46.8602C328.396 43.5356 330.919 41.0026 334.074 39.1029C337.228 37.2032 340.699 36.2533 344.642 36.2533C348.585 36.2533 352.055 37.2032 355.21 39.1029C358.364 41.0026 360.73 43.5356 362.623 46.8602C364.358 50.1847 365.305 53.8258 365.305 57.9419C365.305 62.058 364.358 65.6992 362.623 69.0237C360.888 72.3483 358.364 74.8813 355.21 76.781C352.055 78.6807 348.585 79.6306 344.642 79.6306C340.856 79.6306 337.228 78.6807 334.074 76.781ZM350.636 69.657C352.371 68.5488 353.79 66.9657 354.894 64.9076C355.841 62.8496 356.472 60.6332 356.472 57.9419C356.472 55.409 355.998 53.0343 354.894 50.9762C353.948 48.9182 352.528 47.3351 350.636 46.2269C348.901 45.1187 346.85 44.4855 344.642 44.4855C342.434 44.4855 340.383 45.1187 338.648 46.2269C336.913 47.3351 335.493 48.9182 334.389 50.9762C333.443 53.0343 332.812 55.409 332.812 57.9419C332.812 60.4749 333.285 62.8496 334.389 64.9076C335.336 66.9657 336.755 68.5488 338.648 69.657C340.383 70.7652 342.434 71.3984 344.642 71.3984C346.85 71.3984 348.901 70.7652 350.636 69.657ZM401.583 44.8021H389.595V78.839H381.078V44.8021H369.09V36.8865H401.74V44.8021H401.583ZM431.552 69.9736H414.043L410.731 78.9974H401.74L418.46 37.0449H427.135L444.012 78.9974H434.864L431.552 69.9736ZM428.712 62.533L422.719 46.5435L416.725 62.533H428.712ZM228.394 97.6781C230.918 98.9446 232.811 100.686 234.072 102.902C235.334 105.119 236.123 107.81 236.123 110.976C236.123 113.984 235.492 116.675 234.072 119.05C232.811 121.425 230.918 123.166 228.394 124.274C225.87 125.541 223.031 126.174 219.719 126.174H212.148V137.731H203.473V95.9367H219.719C223.031 95.9367 225.87 96.5699 228.394 97.6781ZM225.24 116.517C226.659 115.251 227.29 113.509 227.29 111.135C227.29 108.76 226.659 107.018 225.24 105.752C223.82 104.485 221.927 103.852 219.246 103.852H212.148V118.417H219.246C221.927 118.417 223.82 117.784 225.24 116.517ZM252.054 135.673C248.899 133.773 246.533 131.24 244.64 127.916C242.905 124.591 241.959 120.95 241.959 116.834C241.959 112.718 242.905 109.076 244.64 105.752C246.375 102.427 248.899 99.8944 252.054 97.9947C255.208 96.095 258.678 95.1451 262.622 95.1451C266.565 95.1451 270.035 96.095 273.19 97.9947C276.344 99.8944 278.71 102.427 280.603 105.752C282.338 109.076 283.284 112.718 283.284 116.834C283.284 120.95 282.338 124.591 280.603 127.916C278.868 131.24 276.344 133.773 273.19 135.673C270.035 137.573 266.565 138.522 262.622 138.522C258.836 138.522 255.208 137.573 252.054 135.673ZM268.773 128.549C270.508 127.441 271.928 125.857 273.032 123.799C273.978 121.741 274.609 119.525 274.609 116.834C274.609 114.301 274.136 111.926 273.032 109.868C272.086 107.81 270.666 106.227 268.773 105.119C267.038 104.011 264.988 103.377 262.779 103.377C260.571 103.377 258.521 104.011 256.786 105.119C255.051 106.227 253.631 107.81 252.527 109.868C251.581 111.926 250.95 114.142 250.95 116.834C250.95 119.367 251.423 121.741 252.527 123.799C253.473 125.857 254.893 127.441 256.786 128.549C258.521 129.657 260.571 130.29 262.779 130.29C264.83 130.29 266.88 129.657 268.773 128.549ZM299.688 135.831C296.534 133.931 294.168 131.398 292.433 128.074C290.698 124.749 289.751 121.108 289.751 116.834C289.751 112.718 290.698 108.918 292.433 105.594C294.168 102.269 296.692 99.7361 299.688 97.8364C302.843 95.9367 306.313 94.9868 310.099 94.9868C313.411 94.9868 316.25 95.62 318.932 96.8865C321.613 98.153 323.821 100.053 325.556 102.427L320.036 108.127C317.512 104.802 314.357 103.219 310.572 103.219C308.206 103.219 306.155 103.852 304.263 104.96C302.37 106.069 300.95 107.652 300.004 109.71C299.058 111.768 298.427 113.984 298.427 116.675C298.427 119.208 298.9 121.583 300.004 123.641C300.95 125.699 302.528 127.282 304.263 128.39C306.155 129.499 308.206 130.132 310.572 130.132C314.357 130.132 317.512 128.549 320.036 125.224L325.556 130.923C323.821 133.298 321.613 135.198 318.932 136.464C316.25 137.731 313.253 138.364 310.099 138.364C306.313 138.522 302.843 137.573 299.688 135.831ZM340.699 135.831C337.544 133.931 335.178 131.398 333.443 128.074C331.708 124.749 330.761 121.108 330.761 116.834C330.761 112.718 331.708 108.918 333.443 105.594C335.178 102.269 337.702 99.7361 340.699 97.8364C343.853 95.9367 347.323 94.9868 351.109 94.9868C354.421 94.9868 357.26 95.62 359.942 96.8865C362.623 98.153 364.831 100.053 366.566 102.427L361.046 108.127C358.522 104.802 355.367 103.219 351.582 103.219C349.216 103.219 347.165 103.852 345.273 104.96C343.38 106.069 341.96 107.652 341.014 109.71C340.068 111.768 339.437 113.984 339.437 116.675C339.437 119.208 339.91 121.583 341.014 123.641C341.96 125.699 343.538 127.282 345.273 128.39C347.165 129.499 349.216 130.132 351.582 130.132C355.367 130.132 358.522 128.549 361.046 125.224L366.566 130.923C364.831 133.298 362.623 135.198 359.942 136.464C357.26 137.731 354.263 138.364 351.109 138.364C347.323 138.522 343.853 137.573 340.699 135.831ZM374.768 95.9367H383.444V123.325L401.425 95.9367H409.627V137.889H401.109V110.501L383.128 137.731H374.926V95.9367H374.768ZM421.299 95.9367H429.974V123.325L447.956 95.9367H456.158V137.889H447.64V110.501L429.659 137.731H421.457V95.9367H421.299Z" fill="#0033A0"/>
</g>
<defs>
<clipPath id="clip0_4_44">
<rect width="456" height="180" fill="white"/>
</clipPath>
</defs>
</svg>
