<svg width="77" height="90" viewBox="0 0 77 90" fill="none" xmlns="http://www.w3.org/2000/svg">
<path d="M0.5 4.05V85.95C0.5 89.1 3.95 91.05 6.65 89.4L74.75 48.45C77.375 46.875 77.375 43.125 74.75 41.55L6.65 0.6C3.95 -1.05 0.5 0.9 0.5 4.05Z" fill="#0033A0"/>
<path d="M49.475 40.725C47.525 40.725 45.875 42.3 45.875 44.325V57.825H45.05V39.225C45.05 37.275 43.4749 35.625 41.45 35.625C39.5 35.625 37.85 37.2 37.85 39.225V57.75H37.1V35.7C37.1 33.75 35.525 32.1 33.5 32.1C31.55 32.1 29.9 33.675 29.9 35.7V57.75H29.15V39.15C29.15 37.2 27.575 35.55 25.55 35.55C23.6 35.55 21.95 37.125 21.95 39.15V63.675L16.7 57.15C15.05 55.125 12.05 54.75 10.025 56.4C8.14995 57.9 7.84996 60.675 9.34995 62.55L23.075 79.5L25.85 82.95L26 83.175C26.45 83.7 26.9 84.15 27.425 84.525C30.125 86.925 33.725 88.35 37.625 88.35H37.7C46.1749 88.35 53.075 81.45 53.075 72.975V44.25C53 42.3 51.425 40.725 49.475 40.725Z" fill="#69B3E7"/>
</svg>
