<svg width="35" height="35" viewBox="0 0 35 35" fill="none" xmlns="http://www.w3.org/2000/svg">
<rect opacity="0.3" width="35" height="35" rx="10" fill="white"/>
<path d="M17.8379 9.40905C12.8732 9.40905 8.84509 13.4361 8.84509 18.4001C8.84509 23.3641 12.8732 27.3911 17.8379 27.3911C22.8028 27.3911 26.8306 23.3641 26.8306 18.4001C26.8306 13.4361 22.8028 9.40905 17.8379 9.40905ZM17.8379 24.2324C14.617 24.2324 12.0045 21.6206 12.0045 18.4001C12.0045 15.1796 14.617 12.5678 17.8379 12.5678C21.0589 12.5678 23.6712 15.1796 23.6712 18.4001C23.6712 21.6206 21.0589 24.2324 17.8379 24.2324Z" fill="#0033A0"/>
<path d="M29.2858 9.05359C29.2858 10.2127 28.3458 11.1526 27.1862 11.1526C26.0268 11.1526 25.0868 10.2127 25.0868 9.05359C25.0868 7.89418 26.0268 6.95459 27.1862 6.95459C28.3458 6.95459 29.2858 7.89418 29.2858 9.05359Z" fill="#0033A0"/>
</svg>
