<svg width="121" height="48" viewBox="0 0 121 48" fill="none" xmlns="http://www.w3.org/2000/svg">
<g clip-path="url(#clip0_326_1288)">
<path d="M16.3231 29.1301L28.8793 36.7713C29.6327 37.2356 29.6327 38.3755 28.8793 38.8399L16.3231 46.4388C15.5278 46.9032 14.5233 46.3544 14.5233 45.4256V30.1433C14.5233 29.2145 15.5278 28.6235 16.3231 29.1301ZM14.5233 1.18287V16.4652C14.5233 17.394 15.5278 17.985 16.3231 17.4784L28.8793 9.83722C29.6327 9.37284 29.6327 8.233 28.8793 7.76862L16.3231 0.169677C15.5278 -0.294703 14.5233 0.254109 14.5233 1.18287ZM0 15.6631V30.9032C0 31.8319 1.0045 32.423 1.79972 31.9164L14.3559 24.2752C15.1093 23.8108 15.1093 22.671 14.3559 22.2066L1.79972 14.5655C1.0045 14.1855 0 14.7343 0 15.6631ZM29.0048 15.6631V30.9032C29.0048 31.8319 30.0093 32.423 30.8046 31.9164L43.3608 24.2752C44.1141 23.8108 44.1141 22.671 43.3608 22.2066L30.8046 14.5655C30.0093 14.1855 29.0048 14.7343 29.0048 15.6631Z" fill="#E5481D"/>
<path d="M60.6883 10.3429C61.358 10.6807 61.8603 11.1451 62.1951 11.7361C62.5299 12.3271 62.7392 13.0448 62.7392 13.8891C62.7392 14.6912 62.5718 15.4089 62.1951 16.0422C61.8603 16.6754 61.358 17.1398 60.6883 17.4353C60.0187 17.773 59.2653 17.9419 58.3864 17.9419H56.3774V21.0237H54.0754V9.83635H58.3864C59.2653 9.83635 60.0187 10.0052 60.6883 10.3429ZM59.8094 15.3245C60.1861 14.9867 60.3535 14.5224 60.3535 13.8891C60.3535 13.2559 60.1861 12.7915 59.8094 12.4538C59.4327 12.116 58.9305 11.9472 58.219 11.9472H56.3355V15.8311H58.219C58.9305 15.8311 59.4746 15.6622 59.8094 15.3245ZM70.8589 18.6596H66.2131L65.3341 21.0659H62.9485L67.385 9.87856H69.687L74.1653 21.0659H71.7378L70.8589 18.6596ZM70.1055 16.6754L68.515 12.4115L66.9664 16.6754H70.1055ZM75.8395 9.83635H83.8755V11.9049H78.0996V14.2268H80.862C82.0758 14.2268 82.9965 14.5224 83.6244 15.0712C84.2522 15.62 84.587 16.4643 84.587 17.5197C84.587 18.6173 84.2522 19.5039 83.5406 20.1371C82.8291 20.7704 81.8246 21.0659 80.569 21.0659H75.8395V9.83635ZM80.4434 19.1239C81.0294 19.1239 81.4898 18.9973 81.7828 18.744C82.0757 18.4907 82.2432 18.1108 82.2432 17.6042C82.2432 16.6332 81.6154 16.1266 80.4016 16.1266H78.0996V19.1239H80.4434ZM88.6468 20.4749C87.8098 19.9683 87.1819 19.2928 86.6797 18.4063C86.2193 17.5197 85.9682 16.5487 85.9682 15.4511C85.9682 14.3535 86.2193 13.3825 86.6797 12.496C87.1401 11.6094 87.8098 10.934 88.6468 10.4274C89.4839 9.92078 90.4047 9.66748 91.4511 9.66748C92.4974 9.66748 93.4182 9.92078 94.2553 10.4274C95.0924 10.934 95.7202 11.6094 96.2224 12.496C96.6828 13.3825 96.9339 14.3535 96.9339 15.4511C96.9339 16.5487 96.6828 17.5197 96.2224 18.4063C95.762 19.2928 95.0924 19.9683 94.2553 20.4749C93.4182 20.9815 92.4974 21.2348 91.4511 21.2348C90.4466 21.2348 89.4839 20.9815 88.6468 20.4749ZM93.0415 18.5751C93.5019 18.2796 93.8786 17.8575 94.1716 17.3086C94.4227 16.7598 94.5901 16.1688 94.5901 15.4511C94.5901 14.7757 94.4645 14.1424 94.1716 13.5936C93.9204 13.0448 93.5438 12.6226 93.0415 12.3271C92.5811 12.0316 92.037 11.8627 91.4511 11.8627C90.8651 11.8627 90.321 12.0316 89.8606 12.3271C89.4002 12.6226 89.0235 13.0448 88.7305 13.5936C88.4794 14.1424 88.312 14.7757 88.312 15.4511C88.312 16.1266 88.4376 16.7598 88.7305 17.3086C88.9817 17.8575 89.3583 18.2796 89.8606 18.5751C90.321 18.8706 90.8651 19.0395 91.4511 19.0395C92.037 19.0395 92.5811 18.8706 93.0415 18.5751ZM106.56 11.9472H103.379V21.0237H101.119V11.9472H97.9384V9.83635H106.602V11.9472H106.56ZM114.513 18.6596H109.867L108.988 21.0659H106.602L111.039 9.87856H113.341L117.819 21.0659H115.392L114.513 18.6596ZM113.759 16.6754L112.169 12.4115L110.578 16.6754H113.759ZM60.6046 26.0474C61.2743 26.3852 61.7765 26.8495 62.1114 27.4406C62.4462 28.0316 62.6555 28.7493 62.6555 29.5936C62.6555 30.3957 62.4881 31.1134 62.1114 31.7466C61.7765 32.3799 61.2743 32.8443 60.6046 33.1398C59.935 33.4775 59.1816 33.6464 58.3027 33.6464H56.2937V36.7282H53.9917V25.583H58.3027C59.1816 25.583 59.935 25.7519 60.6046 26.0474ZM59.7676 31.0712C60.1442 30.7334 60.3117 30.2691 60.3117 29.6358C60.3117 29.0026 60.1442 28.5382 59.7676 28.2005C59.3909 27.8627 58.8886 27.6939 58.1771 27.6939H56.2937V31.5778H58.1771C58.8886 31.5778 59.3909 31.4089 59.7676 31.0712ZM66.8827 36.1794C66.0457 35.6728 65.4179 34.9973 64.9156 34.1108C64.4552 33.2242 64.2041 32.2532 64.2041 31.1556C64.2041 30.058 64.4552 29.087 64.9156 28.2005C65.376 27.3139 66.0457 26.6385 66.8827 26.1319C67.7198 25.6253 68.6406 25.372 69.687 25.372C70.7333 25.372 71.6541 25.6253 72.4912 26.1319C73.3283 26.6385 73.9561 27.3139 74.4583 28.2005C74.9187 29.087 75.1698 30.058 75.1698 31.1556C75.1698 32.2532 74.9187 33.2242 74.4583 34.1108C73.9979 34.9973 73.3283 35.6728 72.4912 36.1794C71.6541 36.6859 70.7333 36.9392 69.687 36.9392C68.6825 36.9392 67.7198 36.6859 66.8827 36.1794ZM71.3193 34.2796C71.7797 33.9841 72.1563 33.5619 72.4493 33.0131C72.7005 32.4643 72.8679 31.8733 72.8679 31.1556C72.8679 30.4801 72.7423 29.8469 72.4493 29.2981C72.1982 28.7493 71.8215 28.3271 71.3193 28.0316C70.8589 27.7361 70.3148 27.5672 69.7288 27.5672C69.1429 27.5672 68.5988 27.7361 68.1384 28.0316C67.678 28.3271 67.3013 28.7493 67.0083 29.2981C66.7572 29.8469 66.5898 30.4379 66.5898 31.1556C66.5898 31.8311 66.7153 32.4643 67.0083 33.0131C67.2594 33.5619 67.6361 33.9841 68.1384 34.2796C68.5988 34.5751 69.1429 34.744 69.7288 34.744C70.2729 34.744 70.817 34.5751 71.3193 34.2796ZM79.5227 36.2216C78.6856 35.715 78.0578 35.0395 77.5974 34.153C77.137 33.2664 76.8859 32.2954 76.8859 31.1556C76.8859 30.058 77.137 29.0448 77.5974 28.1582C78.0578 27.2717 78.7274 26.5962 79.5227 26.0896C80.3597 25.583 81.2805 25.3297 82.285 25.3297C83.164 25.3297 83.9173 25.4986 84.6288 25.8363C85.3404 26.1741 85.9263 26.6807 86.3867 27.3139L84.9218 28.8337C84.2522 27.9472 83.4151 27.525 82.4106 27.525C81.7828 27.525 81.2387 27.6939 80.7364 27.9894C80.2342 28.2849 79.8575 28.7071 79.6064 29.2559C79.3552 29.8047 79.1878 30.3957 79.1878 31.1134C79.1878 31.7889 79.3134 32.4221 79.6064 32.9709C79.8575 33.5197 80.276 33.9419 80.7364 34.2374C81.2387 34.5329 81.7828 34.7018 82.4106 34.7018C83.4151 34.7018 84.2522 34.2796 84.9218 33.3931L86.3867 34.9129C85.9263 35.5461 85.3404 36.0527 84.6288 36.3904C83.9173 36.7282 83.1221 36.897 82.285 36.897C81.2805 36.9392 80.3597 36.6859 79.5227 36.2216ZM90.4047 36.2216C89.5676 35.715 88.9398 35.0395 88.4794 34.153C88.019 33.2664 87.7679 32.2954 87.7679 31.1556C87.7679 30.058 88.019 29.0448 88.4794 28.1582C88.9398 27.2717 89.6095 26.5962 90.4047 26.0896C91.2418 25.583 92.1626 25.3297 93.1671 25.3297C94.046 25.3297 94.7994 25.4986 95.5109 25.8363C96.2224 26.1741 96.8084 26.6807 97.2688 27.3139L95.8039 28.8337C95.1342 27.9472 94.2971 27.525 93.2926 27.525C92.6648 27.525 92.1207 27.6939 91.6185 27.9894C91.1162 28.2849 90.7395 28.7071 90.4884 29.2559C90.2373 29.8047 90.0699 30.3957 90.0699 31.1134C90.0699 31.7889 90.1954 32.4221 90.4884 32.9709C90.7395 33.5197 91.1581 33.9419 91.6185 34.2374C92.1207 34.5329 92.6648 34.7018 93.2926 34.7018C94.2971 34.7018 95.1342 34.2796 95.8039 33.3931L97.2688 34.9129C96.8084 35.5461 96.2224 36.0527 95.5109 36.3904C94.7994 36.7282 94.0042 36.897 93.1671 36.897C92.1626 36.9392 91.2418 36.6859 90.4047 36.2216ZM99.4452 25.583H101.747V32.8865L106.519 25.583H108.695V36.7704H106.435V29.467L101.663 36.7282H99.487V25.583H99.4452ZM111.792 25.583H114.094V32.8865L118.865 25.583H121.042V36.7704H118.782V29.467L114.01 36.7282H111.834V25.583H111.792Z" fill="white"/>
</g>
<defs>
<clipPath id="clip0_326_1288">
<rect width="121" height="48" fill="white"/>
</clipPath>
</defs>
</svg>
