<svg width="35" height="35" viewBox="0 0 35 35" fill="none" xmlns="http://www.w3.org/2000/svg">
<rect opacity="0.3" width="35" height="35" rx="10" fill="white"/>
<path d="M28.7902 23.1682C28.7626 23.1125 28.7368 23.0663 28.7129 23.0293C28.3169 22.3626 27.5601 21.5442 26.443 20.574L26.4194 20.5517L26.4075 20.5408L26.3956 20.5297H26.3836C25.8766 20.0779 25.5555 19.7741 25.4211 19.6186C25.1751 19.3223 25.12 19.0224 25.2544 18.7185C25.3494 18.489 25.7062 18.0041 26.324 17.2634C26.649 16.8708 26.9064 16.5562 27.0964 16.3191C28.4672 14.6156 29.0615 13.527 28.8792 13.0529L28.8084 12.9422C28.7608 12.8755 28.638 12.8145 28.4402 12.7588C28.2419 12.7033 27.9884 12.6941 27.6793 12.7311L24.2567 12.7532C24.2012 12.7348 24.1221 12.7365 24.0189 12.7588C23.9159 12.7811 23.8644 12.7922 23.8644 12.7922L23.8048 12.8201L23.7575 12.8535C23.7179 12.8756 23.6743 12.9145 23.6267 12.97C23.5794 13.0254 23.5398 13.0904 23.5082 13.1644C23.1355 14.0606 22.7119 14.8938 22.2364 15.664C21.9432 16.1233 21.674 16.5213 21.4281 16.8583C21.1825 17.1952 20.9765 17.4434 20.8103 17.6025C20.6438 17.7618 20.4935 17.8894 20.3585 17.9858C20.2238 18.0822 20.1209 18.1229 20.0497 18.108C19.9783 18.0931 19.9111 18.0783 19.8475 18.0636C19.7366 17.9969 19.6474 17.9062 19.5802 17.7914C19.5127 17.6766 19.4672 17.5321 19.4435 17.3581C19.4198 17.1839 19.4058 17.0341 19.4018 16.9081C19.3981 16.7823 19.3998 16.6044 19.4079 16.3748C19.4161 16.1451 19.4198 15.9897 19.4198 15.9082C19.4198 15.6267 19.4257 15.3212 19.4375 14.9917C19.4495 14.6621 19.4592 14.4009 19.4673 14.2086C19.4754 14.016 19.4791 13.8123 19.4791 13.5975C19.4791 13.3827 19.4651 13.2142 19.4375 13.092C19.4102 12.9699 19.3683 12.8513 19.313 12.7364C19.2574 12.6216 19.1761 12.5328 19.0694 12.4698C18.9624 12.4069 18.8295 12.3569 18.6713 12.3198C18.2513 12.2309 17.7165 12.1829 17.0667 12.1754C15.5931 12.1606 14.6462 12.2496 14.2263 12.4421C14.0599 12.5235 13.9094 12.6347 13.7748 12.7753C13.6321 12.9383 13.6122 13.0273 13.7152 13.0419C14.1907 13.1085 14.5272 13.2677 14.7253 13.5195L14.7967 13.653C14.8523 13.7492 14.9077 13.9196 14.9632 14.164C15.0186 14.4084 15.0543 14.6787 15.0701 14.9748C15.1096 15.5156 15.1096 15.9785 15.0701 16.3635C15.0304 16.7487 14.9929 17.0486 14.9572 17.2634C14.9214 17.4782 14.868 17.6523 14.7967 17.7855C14.7253 17.9188 14.6778 18.0003 14.654 18.0299C14.6303 18.0595 14.6104 18.0781 14.5947 18.0854C14.4917 18.1223 14.3846 18.1411 14.2738 18.1411C14.1628 18.1411 14.0281 18.0892 13.8697 17.9855C13.7113 17.8817 13.5469 17.7392 13.3766 17.5577C13.2062 17.3762 13.0141 17.1226 12.8001 16.7967C12.5862 16.4709 12.3644 16.0858 12.1346 15.6414L11.9445 15.3191C11.8256 15.1118 11.6633 14.8099 11.4573 14.4138C11.2511 14.0175 11.069 13.6341 10.9106 13.2638C10.8473 13.1083 10.7521 12.9899 10.6254 12.9084L10.5659 12.875C10.5264 12.8454 10.4629 12.814 10.3758 12.7805C10.2886 12.7471 10.1976 12.7231 10.1024 12.7084L6.84608 12.7305C6.51333 12.7305 6.28755 12.8009 6.16866 12.9417L6.12108 13.0083C6.09732 13.0453 6.08533 13.1046 6.08533 13.1861C6.08533 13.2676 6.1091 13.3676 6.15667 13.486C6.63204 14.5304 7.149 15.5376 7.70753 16.5078C8.26607 17.478 8.75143 18.2596 9.16332 18.8517C9.57529 19.4443 9.99521 20.0036 10.4231 20.5293C10.851 21.0551 11.1342 21.3921 11.2728 21.5402C11.4115 21.6885 11.5205 21.7994 11.5997 21.8735L11.8969 22.1401C12.087 22.3179 12.3662 22.5308 12.7347 22.7788C13.1032 23.027 13.5111 23.2714 13.9588 23.5123C14.4065 23.7528 14.9274 23.9491 15.5217 24.1009C16.1159 24.2528 16.6942 24.3138 17.2568 24.2844H18.6236C18.9008 24.262 19.1108 24.1805 19.2535 24.0399L19.3008 23.9842C19.3326 23.94 19.3623 23.8713 19.3898 23.7789C19.4176 23.6864 19.4314 23.5844 19.4314 23.4734C19.4233 23.155 19.4493 22.8681 19.5085 22.6126C19.5678 22.3572 19.6353 22.1646 19.7108 22.0349C19.7863 21.9053 19.8714 21.796 19.9662 21.7073C20.0612 21.6185 20.1289 21.5647 20.1686 21.5462C20.2081 21.5275 20.2396 21.5149 20.2633 21.5073C20.4535 21.4481 20.6773 21.5054 20.935 21.6796C21.1926 21.8537 21.4341 22.0686 21.6601 22.324C21.8859 22.5796 22.1572 22.8665 22.474 23.1849C22.7911 23.5034 23.0683 23.7402 23.3059 23.8959L23.5435 24.0293C23.7022 24.1182 23.9082 24.1997 24.1618 24.2737C24.4149 24.3477 24.6367 24.3663 24.8272 24.3293L27.8695 24.2849C28.1704 24.2849 28.4045 24.2383 28.5706 24.1459C28.737 24.0533 28.8359 23.9513 28.8678 23.8404C28.8996 23.7294 28.9013 23.6034 28.8738 23.4625C28.8457 23.322 28.8179 23.2237 28.7902 23.1682Z" fill="#0033A0"/>
</svg>
