<svg width="160" height="160" viewBox="0 0 160 160" fill="none" xmlns="http://www.w3.org/2000/svg">
<path d="M135 40H25C22.2 40 20 42.2 20 45V115C20 117.8 22.2 120 25 120H54C51.2 120 49 122.2 49 125V130H109V125C109 122.2 106.8 120 104 120H135C137.8 120 140 117.8 140 115V45C140 42.2 137.8 40 135 40Z" fill="#0033A0"/>
<path d="M79.5 85C89.165 85 97 77.165 97 67.5C97 57.835 89.165 50 79.5 50C69.835 50 62 57.835 62 67.5C62 77.165 69.835 85 79.5 85Z" fill="#69B3E7"/>
<path d="M44.4004 120H113.7C111.3 103 96.7004 90 79.1004 90C61.5004 90 46.8004 103 44.4004 120Z" fill="#69B3E7"/>
</svg>
