<svg width="35" height="37" viewBox="0 0 35 37" fill="none" xmlns="http://www.w3.org/2000/svg">
<rect y="0.055542" width="35" height="36.9444" rx="10" fill="#0033A0"/>
<path d="M17.838 9.98755C12.8733 9.98755 8.84521 14.2383 8.84521 19.4781C8.84521 24.7179 12.8733 28.9686 17.838 28.9686C22.8029 28.9686 26.8307 24.7179 26.8307 19.4781C26.8307 14.2383 22.8029 9.98755 17.838 9.98755ZM17.838 25.6344C14.6172 25.6344 12.0046 22.8775 12.0046 19.4781C12.0046 16.0787 14.6172 13.3218 17.838 13.3218C21.0591 13.3218 23.6714 16.0787 23.6714 19.4781C23.6714 22.8775 21.0591 25.6344 17.838 25.6344Z" fill="white"/>
<path d="M29.286 9.61234C29.286 10.8359 28.3459 11.8279 27.1863 11.8279C26.0269 11.8279 25.0869 10.8359 25.0869 9.61234C25.0869 8.38852 26.0269 7.39673 27.1863 7.39673C28.3459 7.39673 29.286 8.38852 29.286 9.61234Z" fill="white"/>
</svg>
