<svg width="160" height="160" viewBox="0 0 160 160" fill="none" xmlns="http://www.w3.org/2000/svg">
<path d="M79.9742 88.6454L79.981 140.034C90.5119 139.994 100.844 137.298 110.034 131.981C119.174 126.75 126.712 119.093 131.962 110L87.5347 84.3502C84.1572 82.4002 79.9787 84.8375 79.9742 88.6454Z" fill="#69B3E7"/>
<path d="M131.962 110C148.412 81.5079 138.493 44.4886 110.001 28.0386C81.5083 11.5886 44.4891 21.5079 28.0391 50.0001C11.5891 78.4923 21.5083 115.512 50.0006 131.962C59.0939 137.212 69.5005 139.987 79.9813 140.033L79.9745 88.6453C79.979 84.8374 84.1575 82.4001 87.4484 84.3001L131.962 110Z" fill="#0033A0"/>
</svg>
