<svg width="160" height="160" viewBox="0 0 160 160" fill="none" xmlns="http://www.w3.org/2000/svg">
<path d="M30 25.4V134.6C30 138.8 34.6 141.4 38.2 139.2L129 84.6C132.5 82.5 132.5 77.5 129 75.4L38.2 20.8C34.6 18.6 30 21.2 30 25.4Z" fill="#0033A0"/>
<path d="M95.2999 74.3C92.6999 74.3 90.4999 76.4 90.4999 79.1V97.1H89.3999V72.3C89.3999 69.7 87.2999 67.5 84.5999 67.5C81.9999 67.5 79.7999 69.6 79.7999 72.3V97H78.7999V67.6C78.7999 65 76.6999 62.8 73.9999 62.8C71.3999 62.8 69.1999 64.9 69.1999 67.6V97H68.1999V72.2001C68.1999 69.6001 66.0999 67.4001 63.3999 67.4001C60.7999 67.4001 58.5999 69.5001 58.5999 72.2001V104.9L51.5999 96.2C49.3999 93.5 45.3999 93 42.6999 95.2C40.1999 97.2 39.7999 100.9 41.7999 103.4L60.0999 126L63.7999 130.6L63.9999 130.9C64.5999 131.6 65.1999 132.2 65.8999 132.7C69.4999 135.9 74.2999 137.8 79.4999 137.8H79.5999C90.8999 137.8 100.1 128.6 100.1 117.3V79C99.9999 76.4 97.8999 74.3 95.2999 74.3Z" fill="#69B3E7"/>
</svg>
