<svg width="890" height="795" viewBox="0 0 890 795" fill="none" xmlns="http://www.w3.org/2000/svg">
<path d="M468.673 2.67958C458.52 -3.4612 450.236 1.34462 450.236 13.0922V240.835C450.236 252.583 458.52 257.122 468.673 251.248L657.051 138.044C667.205 131.903 667.205 122.024 657.051 116.151L468.673 2.67958Z" fill="#0033A0"/>
<path d="M656.517 408.772C666.671 402.632 674.954 397.826 674.954 398.093C674.954 398.36 683.238 393.554 693.391 387.413L881.769 274.209C891.923 268.068 891.923 258.19 881.769 252.316L693.391 139.112C683.238 132.971 674.954 137.777 674.954 149.525V376.2C674.954 387.947 666.671 392.486 656.517 386.612L468.407 273.408C458.253 267.268 441.953 257.389 431.8 251.515L243.155 138.311C233.001 132.17 216.701 122.292 206.548 116.418L18.437 2.94688C8.28329 -2.92691 0 1.61193 0 13.3595V782.025C0 793.773 8.28329 798.312 18.437 792.438L206.815 679.234C216.969 673.093 233.268 663.214 243.422 657.341L431.8 544.137C441.953 537.996 458.253 528.117 468.407 522.243L656.517 408.772Z" fill="#CF4520"/>
</svg>
